<?xml version="1.0"?>
<svg xmlns="http://www.w3.org/2000/svg" viewBox="0 0 64 64" width="512" height="512"><g id="Outline"><path d="M38.162,30H29a4,4,0,0,0-4,4H19.414l-3.879-3.878a3.828,3.828,0,0,0-5.414,5.414L16.586,42H55V32H44.162ZM53,40H17.414l-5.879-5.878A1.829,1.829,0,0,1,12.828,31a1.839,1.839,0,0,1,1.293.536L18.586,36h6.951A4,4,0,0,0,29,38h9V36H29a2,2,0,0,1,0-4h8.838l6,2H53Z"/><path d="M32,21a6,6,0,1,0-6-6A6.006,6.006,0,0,0,32,21Zm0-2a4,4,0,0,1-4-4,3.939,3.939,0,0,1,.142-1h7.716A3.939,3.939,0,0,1,36,15,4,4,0,0,1,32,19Zm2.618-7H29.382a3.927,3.927,0,0,1,5.236,0Z"/><path d="M41.534,12a9.858,9.858,0,0,0-.673-1.619l2.452-2.452L39.071,3.687,36.619,6.139A9.858,9.858,0,0,0,35,5.466V2H29V5.466a9.858,9.858,0,0,0-1.619.673L24.929,3.687,20.687,7.929l2.452,2.452A9.858,9.858,0,0,0,22.466,12H2V52H26v3.808L23.523,62H40.477L38,55.808V52H62V12ZM21,14h3.028l.177-.778a7.959,7.959,0,0,1,1.027-2.473l.426-.676L23.515,7.929l1.414-1.414,2.143,2.143.675-.425a7.934,7.934,0,0,1,2.475-1.027L31,7.029V4h2V7.029l.778.177a7.934,7.934,0,0,1,2.475,1.027l.675.425,2.143-2.143,1.414,1.414-2.143,2.144.426.676A7.959,7.959,0,0,1,39.8,13.222l.177.778H43v2H39.972l-.177.778a7.959,7.959,0,0,1-1.027,2.473l-.426.676,2.143,2.144-1.414,1.414-2.143-2.143-.676.425a7.913,7.913,0,0,1-2.474,1.027L33,22.971V26H31V22.971l-.778-.177a7.913,7.913,0,0,1-2.474-1.027l-.676-.425-2.143,2.143-1.414-1.414,2.143-2.144-.426-.676a7.959,7.959,0,0,1-1.027-2.473L24.028,16H21Zm5.477,46,1.2-3h8.646l1.2,3ZM36,55H28V52h8Zm24-5H4V46H60Zm0-36V44H4V14H19v4h3.466a9.858,9.858,0,0,0,.673,1.619l-2.452,2.452,4.242,4.242,2.452-2.451A9.9,9.9,0,0,0,29,24.534V28h6V24.534a9.9,9.9,0,0,0,1.619-.672l2.452,2.451,4.242-4.242-2.452-2.452A9.858,9.858,0,0,0,41.534,18H45V14Z"/></g></svg>
